<svg width="1696" height="396" viewBox="0 0 1696 396" preserveAspectRatio="none" fill="none" xmlns="http://www.w3.org/2000/svg">
<path d="M355.942 202.863C73.6544 149.633 -174.855 0.999988 166.544 1H1695V315.068L1695 395C1695 395 624.96 323.243 990.485 305.227C1356.01 287.211 638.229 256.093 355.942 202.863Z" fill="#d3e5f1" fill-opacity="0.3"/>
<path d="M166.544 1C-174.855 0.999988 73.6544 149.633 355.942 202.863C638.229 256.093 1356.01 287.212 990.485 305.227C624.96 323.243 1695 395 1695 395L1695 315.068V1M166.544 1C507.943 1.00001 1695 1 1695 1M166.544 1H1695" stroke="#EEEEEE" stroke-opacity="0.25"/>
</svg>
